<svg xmlns="http://www.w3.org/2000/svg" xmlns:xlink="http://www.w3.org/1999/xlink" width="1201" height="950" contentScriptType="application/ecmascript" contentStyleType="text/css" style="width:1201px;height:950px" preserveAspectRatio="none" version="1.1" viewBox="0 0 1201 950" zoomAndPan="magnify"><defs><filter id="shadowFilter" width="300%" height="300%" x="-1" y="-1"><feGaussianBlur result="blurOut" stdDeviation="2"/><feColorMatrix in="blurOut" result="blurOut2" type="matrix" values="0 0 0 0 0 0 0 0 0 0 0 0 0 0 0 0 0 0 .4 0"/><feOffset dx="4" dy="4" in="blurOut2" result="blurOut3"/><feBlend in="SourceGraphic" in2="blurOut3" mode="normal"/></filter><style>@import url(https://fonts.googleapis.com/css?family=Roboto|Roboto+Mono&amp;display=swap);.b0{fill:#ececec}.b1{fill:#f8f8f8}.b2{fill:#fff}.b3{fill:none}.b4{fill:#383838}.l0{filter:url(#shadowFilter)}.l0,.l1{stroke:#383838;stroke-width:1px}.l2{filter:url(#shadowFilter)}.l2,.l3,.l4{stroke:#000;stroke-width:1.5px}.l4{stroke:#383838}.t0{font-size:14px;font-family:Roboto}.t0,.t1{fill:#000}.t1,.t2{font-size:14px}.t1{font-family:&quot;Roboto Mono&quot;}.t2{fill:#1c1c1c;text-decoration:underline;font-family:Roboto}</style></defs><g><path d="M714.25,10 L714.25,43.8125 L694.25,47.8125 L714.25,51.8125 L714.25,85.625 A0,0 0 0 0 714.25,85.625 L1011.25,85.625 A0,0 0 0 0 1011.25,85.625 L1011.25,20 L1001.25,10 L714.25,10 A0,0 0 0 0 714.25,10" class="l0 b0"/><path d="M1001.25,10 L1001.25,20 L1011.25,20 L1001.25,10" class="l1 b0"/><text x="720.25" y="27.988" class="t0" lengthAdjust="spacingAndGlyphs" textLength="86">In any thread.</text><text x="720.25" y="44.395" class="t0" lengthAdjust="spacingAndGlyphs" textLength="128">Get on demand only.</text><text x="720.25" y="60.801" class="t0" lengthAdjust="spacingAndGlyphs" textLength="123">Do not cache result.</text><text x="720.25" y="77.207" class="t0" lengthAdjust="spacingAndGlyphs" textLength="276">Do not request in constructor unless needed.</text><rect width="84" height="36.406" x="610.25" y="29.609" class="l0 b1" rx="12.5" ry="12.5"/><text x="620.25" y="52.598" class="t0" lengthAdjust="spacingAndGlyphs" textLength="64">getService</text><rect width="91" height="36.488" x="606.75" y="206.031" class="l0 b1" rx="12.5" ry="12.5"/><text x="616.75" y="229.102" class="t0" lengthAdjust="spacingAndGlyphs" textLength="42">Return</text><text x="661.75" y="229.566" class="t1" lengthAdjust="spacingAndGlyphs" textLength="26">null</text><polygon points="564.75 155.828 739.75 155.828 751.75 167.828 739.75 179.828 564.75 179.828 552.75 167.828 564.75 155.828" class="l0 b1"/><text x="656.25" y="192.816" class="t0" lengthAdjust="spacingAndGlyphs" textLength="16">no</text><text x="564.75" y="172.613" class="t0" lengthAdjust="spacingAndGlyphs" textLength="11">Is</text><a href="http://www.jetbrains.org/intellij/sdk/docs/basics/plugin_structure/plugin_services.html?search=ser#how-to-declare-a-service" target="_top" title="http://www.jetbrains.org/intellij/sdk/docs/basics/plugin_structure/plugin_services.html?search=ser#how-to-declare-a-service" xlink:actuate="onRequest" xlink:href="http://www.jetbrains.org/intellij/sdk/docs/basics/plugin_structure/plugin_services.html?search=ser#how-to-declare-a-service" xlink:show="new" xlink:title="http://www.jetbrains.org/intellij/sdk/docs/basics/plugin_structure/plugin_services.html?search=ser#how-to-declare-a-service" xlink:type="simple"><text x="578.75" y="172.613" class="t2" lengthAdjust="spacingAndGlyphs" textLength="118">Service Declaration</text></a><text x="699.75" y="172.613" class="t0" lengthAdjust="spacingAndGlyphs" textLength="40">Found</text><text x="751.75" y="164.41" class="t0" lengthAdjust="spacingAndGlyphs" textLength="21">yes</text><polygon points="605.75 105.625 698.75 105.625 710.75 117.625 698.75 129.625 605.75 129.625 593.75 117.625 605.75 105.625" class="l0 b1"/><text x="656.25" y="142.613" class="t0" lengthAdjust="spacingAndGlyphs" textLength="16">no</text><text x="605.75" y="122.41" class="t0" lengthAdjust="spacingAndGlyphs" textLength="11">Is</text><a href="http://www.jetbrains.org/intellij/sdk/docs/basics/plugin_structure/plugin_services.html?search=ser#light-service" target="_top" title="http://www.jetbrains.org/intellij/sdk/docs/basics/plugin_structure/plugin_services.html?search=ser#light-service" xlink:actuate="onRequest" xlink:href="http://www.jetbrains.org/intellij/sdk/docs/basics/plugin_structure/plugin_services.html?search=ser#light-service" xlink:show="new" xlink:title="http://www.jetbrains.org/intellij/sdk/docs/basics/plugin_structure/plugin_services.html?search=ser#light-service" xlink:type="simple"><text x="619.75" y="122.41" class="t2" lengthAdjust="spacingAndGlyphs" textLength="79">Light Service</text></a><text x="710.75" y="114.207" class="t0" lengthAdjust="spacingAndGlyphs" textLength="21">yes</text><polygon points="652.25 284.519 664.25 296.519 652.25 308.519 640.25 296.519 652.25 284.519" class="l0 b1"/><polygon points="590.75 378.723 713.75 378.723 725.75 390.723 713.75 402.723 590.75 402.723 578.75 390.723 590.75 378.723" class="l0 b1"/><text x="590.75" y="395.508" class="t0" lengthAdjust="spacingAndGlyphs" textLength="123">Is Container Active?</text><text x="541.75" y="387.305" class="t0" lengthAdjust="spacingAndGlyphs" textLength="37">active</text><text x="725.75" y="387.305" class="t0" lengthAdjust="spacingAndGlyphs" textLength="195">disposed or dispose in progress</text><rect width="885" height="426.535" x="10" y="412.723" class="l2 b2"/><path d="M203,413.7227 L203,422.1289 L193,432.1289 L10,432.1289" class="l3 b3"/><text x="13" y="426.711" class="t0" lengthAdjust="spacingAndGlyphs" textLength="183">synchronized on service class</text><polygon points="224.5 499.332 308.5 499.332 320.5 511.332 308.5 523.332 224.5 523.332 212.5 511.332 224.5 499.332" class="l0 b1"/><text x="224.5" y="516.117" class="t0" lengthAdjust="spacingAndGlyphs" textLength="84">Is Initializing?</text><text x="191.5" y="507.914" class="t0" lengthAdjust="spacingAndGlyphs" textLength="21">yes</text><text x="320.5" y="507.914" class="t0" lengthAdjust="spacingAndGlyphs" textLength="16">no</text><rect width="182" height="52.895" x="40" y="533.332" class="l0 b1" rx="12.5" ry="12.5"/><text x="54" y="556.402" class="t0" lengthAdjust="spacingAndGlyphs" textLength="40">Throw</text><text x="97" y="556.867" class="t1" lengthAdjust="spacingAndGlyphs" textLength="111">PluginException</text><text x="50" y="572.809" class="t0" lengthAdjust="spacingAndGlyphs" textLength="162">Cyclic Service Initialization</text><rect width="611" height="249.926" x="242" y="533.332" class="l2 b2"/><path d="M345,534.332 L345,542.7383 L335,552.7383 L242,552.7383" class="l3 b3"/><text x="245" y="547.32" class="t0" lengthAdjust="spacingAndGlyphs" textLength="93">non cancelable</text><path d="M481,569.7383 L481,587.1445 L461,591.1445 L481,595.1445 L481,612.5508 A0,0 0 0 0 481,612.5508 L843,612.5508 A0,0 0 0 0 843,612.5508 L843,579.7383 L833,569.7383 L481,569.7383 A0,0 0 0 0 481,569.7383" class="l0 b0"/><path d="M833,569.7383 L833,579.7383 L843,579.7383 L833,569.7383" class="l1 b0"/><text x="487" y="587.727" class="t0" lengthAdjust="spacingAndGlyphs" textLength="341">Avoid getting other services to reduce initialization tree.</text><text x="487" y="604.133" class="t0" lengthAdjust="spacingAndGlyphs" textLength="305">As less dependencies, as more faster and reliable.</text><rect width="118" height="36.406" x="343" y="572.941" class="l0 b1"/><text x="353" y="595.93" class="t0" lengthAdjust="spacingAndGlyphs" textLength="98">Create Instance</text><rect width="300" height="52.895" x="252" y="645.469" class="l0 b1"/><text x="262" y="668.457" class="t0" lengthAdjust="spacingAndGlyphs" textLength="280">Register to be Disposed on Container Dispose</text><text x="321" y="684.945" class="t0" lengthAdjust="spacingAndGlyphs" textLength="84">if Implements</text><text x="408" y="685.41" class="t1" lengthAdjust="spacingAndGlyphs" textLength="75">Disposable</text><rect width="289" height="52.895" x="257.5" y="718.363" class="l0 b1"/><text x="335" y="741.352" class="t0" lengthAdjust="spacingAndGlyphs" textLength="134">Load Persistent State</text><text x="267.5" y="757.84" class="t0" lengthAdjust="spacingAndGlyphs" textLength="84">if Implements</text><text x="354.5" y="758.305" class="t1" lengthAdjust="spacingAndGlyphs" textLength="182">PersistentStateComponent</text><polygon points="187 449.129 346 449.129 358 461.129 346 473.129 187 473.129 175 461.129 187 449.129" class="l0 b1"/><text x="270.5" y="486.117" class="t0" lengthAdjust="spacingAndGlyphs" textLength="16">no</text><text x="187" y="465.914" class="t0" lengthAdjust="spacingAndGlyphs" textLength="159">Is Created and Initialized?</text><text x="358" y="457.711" class="t0" lengthAdjust="spacingAndGlyphs" textLength="21">yes</text><polygon points="266.5 803.258 278.5 815.258 266.5 827.258 254.5 815.258 266.5 803.258" class="l0 b1"/><rect width="246" height="36.488" x="915" y="412.723" class="l0 b1" rx="12.5" ry="12.5"/><text x="925" y="435.793" class="t0" lengthAdjust="spacingAndGlyphs" textLength="40">Throw</text><text x="968" y="436.258" class="t1" lengthAdjust="spacingAndGlyphs" textLength="183">ProcessCanceledException</text><polygon points="572.75 328.519 731.75 328.519 743.75 340.519 731.75 352.519 572.75 352.519 560.75 340.519 572.75 328.519" class="l0 b1"/><text x="656.25" y="365.508" class="t0" lengthAdjust="spacingAndGlyphs" textLength="16">no</text><text x="572.75" y="345.305" class="t0" lengthAdjust="spacingAndGlyphs" textLength="159">Is Created and Initialized?</text><text x="743.75" y="337.102" class="t0" lengthAdjust="spacingAndGlyphs" textLength="21">yes</text><polygon points="652.25 859.258 664.25 871.258 652.25 883.258 640.25 871.258 652.25 859.258" class="l0 b1"/><rect width="119" height="36.406" x="592.75" y="903.258" class="l0 b1" rx="12.5" ry="12.5"/><text x="602.75" y="926.246" class="t0" lengthAdjust="spacingAndGlyphs" textLength="99">Return Instance</text><line x1="652.25" x2="652.25" y1="179.828" y2="206.031" class="l4"/><polygon points="648.25 196.031 652.25 206.031 656.25 196.031 652.25 200.031" class="l1 b4"/><line x1="751.75" x2="763.75" y1="167.828" y2="167.828" class="l4"/><polygon points="759.75 211.275 763.75 221.275 767.75 211.275 763.75 215.275" class="l4 b4"/><line x1="763.75" x2="763.75" y1="167.828" y2="264.519" class="l4"/><line x1="763.75" x2="652.25" y1="264.519" y2="264.519" class="l4"/><line x1="652.25" x2="652.25" y1="264.519" y2="284.519" class="l4"/><polygon points="648.25 274.519 652.25 284.519 656.25 274.519 652.25 278.519" class="l1 b4"/><line x1="652.25" x2="652.25" y1="129.625" y2="155.828" class="l4"/><polygon points="648.25 145.828 652.25 155.828 656.25 145.828 652.25 149.828" class="l1 b4"/><line x1="710.75" x2="773.75" y1="117.625" y2="117.625" class="l4"/><polygon points="769.75 205.275 773.75 215.275 777.75 205.275 773.75 209.275" class="l4 b4"/><line x1="773.75" x2="773.75" y1="117.625" y2="296.519" class="l4"/><line x1="773.75" x2="664.25" y1="296.519" y2="296.519" class="l4"/><polygon points="674.25 292.519 664.25 296.519 674.25 300.519 670.25 296.519" class="l1 b4"/><line x1="652.25" x2="652.25" y1="66.016" y2="105.625" class="l4"/><polygon points="648.25 95.625 652.25 105.625 656.25 95.625 652.25 99.625" class="l1 b4"/><line x1="402" x2="402" y1="609.348" y2="645.469" class="l4"/><polygon points="398 635.469 402 645.469 406 635.469 402 639.469" class="l1 b4"/><line x1="402" x2="402" y1="698.363" y2="718.363" class="l4"/><polygon points="398 708.363 402 718.363 406 708.363 402 712.363" class="l1 b4"/><line x1="212.5" x2="131" y1="511.332" y2="511.332" class="l4"/><line x1="131" x2="131" y1="511.332" y2="533.332" class="l4"/><polygon points="127 523.332 131 533.332 135 523.332 131 527.332" class="l1 b4"/><line x1="320.5" x2="402" y1="511.332" y2="511.332" class="l4"/><line x1="402" x2="402" y1="511.332" y2="572.941" class="l4"/><polygon points="398 562.941 402 572.941 406 562.941 402 566.941" class="l1 b4"/><line x1="402" x2="402" y1="771.258" y2="788.258" class="l4"/><line x1="402" x2="266.5" y1="788.258" y2="788.258" class="l4"/><line x1="266.5" x2="266.5" y1="788.258" y2="803.258" class="l4"/><polygon points="262.5 793.258 266.5 803.258 270.5 793.258 266.5 797.258" class="l1 b4"/><line x1="266.5" x2="266.5" y1="473.129" y2="499.332" class="l4"/><polygon points="262.5 489.332 266.5 499.332 270.5 489.332 266.5 493.332" class="l1 b4"/><line x1="358" x2="873" y1="461.129" y2="461.129" class="l4"/><polygon points="869 644.754 873 654.754 877 644.754 873 648.754" class="l4 b4"/><line x1="873" x2="873" y1="461.129" y2="815.258" class="l4"/><line x1="873" x2="278.5" y1="815.258" y2="815.258" class="l4"/><polygon points="288.5 811.258 278.5 815.258 288.5 819.258 284.5 815.258" class="l1 b4"/><line x1="578.75" x2="266.5" y1="390.723" y2="390.723" class="l4"/><line x1="266.5" x2="266.5" y1="390.723" y2="449.129" class="l4"/><polygon points="262.5 439.129 266.5 449.129 270.5 439.129 266.5 443.129" class="l1 b4"/><line x1="725.75" x2="1038" y1="390.723" y2="390.723" class="l4"/><line x1="1038" x2="1038" y1="390.723" y2="412.723" class="l4"/><polygon points="1034 402.723 1038 412.723 1042 402.723 1038 406.723" class="l1 b4"/><line x1="266.5" x2="266.5" y1="827.258" y2="844.258" class="l4"/><line x1="266.5" x2="652.25" y1="844.258" y2="844.258" class="l4"/><line x1="652.25" x2="652.25" y1="844.258" y2="859.258" class="l4"/><polygon points="648.25 849.258 652.25 859.258 656.25 849.258 652.25 853.258" class="l1 b4"/><line x1="652.25" x2="652.25" y1="352.519" y2="378.723" class="l4"/><polygon points="648.25 368.723 652.25 378.723 656.25 368.723 652.25 372.723" class="l1 b4"/><line x1="743.75" x2="1175" y1="340.519" y2="340.519" class="l4"/><polygon points="1171 622.551 1175 632.551 1179 622.551 1175 626.551" class="l4 b4"/><line x1="1175" x2="1175" y1="340.519" y2="871.258" class="l4"/><line x1="1175" x2="664.25" y1="871.258" y2="871.258" class="l4"/><polygon points="674.25 867.258 664.25 871.258 674.25 875.258 670.25 871.258" class="l1 b4"/><line x1="652.25" x2="652.25" y1="308.519" y2="328.519" class="l4"/><polygon points="648.25 318.519 652.25 328.519 656.25 318.519 652.25 322.519" class="l1 b4"/><line x1="652.25" x2="652.25" y1="883.258" y2="903.258" class="l4"/><polygon points="648.25 893.258 652.25 903.258 656.25 893.258 652.25 897.258" class="l1 b4"/></g></svg>